<svg width="40" height="40" viewBox="0 0 40 40" fill="none" xmlns="http://www.w3.org/2000/svg">
<rect width="40" height="40" rx="20" fill="#AE3EE6"/>
<path d="M29.62 13.0388H23.6443V14.5664H29.62V13.0388Z" fill="#F7F7F8"/>
<path d="M24.9689 24.844C25.2233 25.0798 25.523 25.2614 25.8497 25.3778C26.1765 25.4942 26.5235 25.543 26.8697 25.5212C27.4185 25.535 27.9567 25.368 28.4013 25.0459C28.7629 24.8108 29.0368 24.4627 29.1804 24.0559H31.7653C31.4899 25.2141 30.8173 26.2391 29.8645 26.9527C28.9504 27.5594 27.8702 27.8667 26.7737 27.8319C25.991 27.8421 25.2143 27.695 24.4897 27.3992C23.8342 27.1258 23.2463 26.7126 22.7671 26.1884C22.2896 25.6391 21.9229 25.0028 21.687 24.3143C21.4221 23.5448 21.2925 22.7352 21.3038 21.9214C21.299 21.1213 21.433 20.3265 21.6998 19.5721C22.0583 18.5109 22.7438 17.5906 23.6578 16.9432C24.5719 16.2958 25.6675 15.9545 26.7875 15.9685C27.6144 15.9512 28.4321 16.1447 29.1636 16.5308C29.8247 16.8933 30.3951 17.4011 30.8317 18.0158C31.2784 18.6609 31.5986 19.3849 31.7752 20.1493C31.969 20.9702 32.0381 21.8156 31.9802 22.657H24.2808C24.2184 23.4476 24.4651 24.2315 24.9689 24.844V24.844ZM28.3468 18.9346C28.1313 18.7191 27.8722 18.5522 27.5868 18.4453C27.3015 18.3384 26.9965 18.2939 26.6925 18.3148C26.2892 18.2994 25.8887 18.3888 25.5302 18.5742C25.246 18.7307 24.9951 18.9412 24.7916 19.1939C24.6114 19.4309 24.477 19.6996 24.3956 19.986C24.3223 20.2248 24.2765 20.4713 24.259 20.7206H29.0279C28.9864 20.0708 28.7497 19.4486 28.3488 18.9356L28.3468 18.9346Z" fill="#F7F7F8"/>
<path d="M14.947 12.0014C15.5954 11.9893 16.243 12.0558 16.8755 12.1994C17.4081 12.3157 17.9137 12.532 18.3655 12.837C18.7828 13.1402 19.1129 13.5479 19.3228 14.019C19.5641 14.5984 19.6805 15.2222 19.6644 15.8496C19.6918 16.5385 19.5158 17.2202 19.1585 17.8098C18.7825 18.3667 18.2629 18.8114 17.6547 19.0968C18.4801 19.3194 19.199 19.8291 19.6822 20.5343C20.1461 21.2816 20.3792 22.1491 20.3525 23.0282C20.3678 23.7291 20.2228 24.4243 19.9287 25.0607C19.6569 25.6159 19.2588 26.0997 18.7664 26.4735C18.2595 26.8431 17.6891 27.1166 17.0834 27.2803C16.4553 27.4541 15.8065 27.5413 15.1549 27.5397H8V12.0014H14.947ZM14.5341 18.286C15.0436 18.307 15.5452 18.1545 15.9568 17.8534C16.1539 17.6779 16.3072 17.4588 16.4045 17.2135C16.5018 16.9682 16.5404 16.7035 16.5171 16.4406C16.5303 16.1336 16.4692 15.8279 16.3389 15.5496C16.2284 15.328 16.0566 15.1428 15.8439 15.016C15.6285 14.8764 15.3864 14.783 15.1331 14.7418C14.8582 14.6885 14.5785 14.6643 14.2985 14.6695H11.2413V18.2999H14.5341V18.286ZM14.7123 24.9013C15.0205 24.9055 15.328 24.8722 15.6281 24.8023C15.9024 24.7417 16.1625 24.6292 16.3944 24.4707C16.6215 24.3122 16.8051 24.0991 16.928 23.8509C17.0705 23.5345 17.136 23.1887 17.1191 22.8421C17.15 22.5262 17.1081 22.2074 16.9967 21.9102C16.8854 21.613 16.7074 21.3452 16.4765 21.1274C15.9872 20.7669 15.3875 20.5884 14.7806 20.6225H11.2413V24.9013H14.7123Z" fill="#F7F7F8"/>
</svg>
