<svg
    width="54"
    height="55"
    viewBox="0 0 54 55"
    fill="none"
    xmlns="http://www.w3.org/2000/svg"
>
    <rect
    x="0.635666"
    y="0.789551"
    width="53.2857"
    height="53.2857"
    rx="26.6429"
    fill="#AE3EE6"
    />
    <path
    d="M26.2594 14.6089C25.7692 14.8113 25.3309 15.2509 24.4531 16.1275C23.5752 17.0067 23.1356 17.445 22.9344 17.9339C22.8005 18.2572 22.7315 18.6037 22.7315 18.9536C22.7315 19.3036 22.8005 19.6501 22.9344 19.9734C23.1356 20.4636 23.5738 20.9019 24.4531 21.7798C25.3296 22.6577 25.7692 23.0973 26.2594 23.2984C26.912 23.5686 27.6451 23.5686 28.2976 23.2984C28.7878 23.0973 29.2261 22.659 30.104 21.7798C30.9819 20.9006 31.4202 20.4636 31.6226 19.9734C31.8928 19.3209 31.8928 18.5878 31.6226 17.9352C31.4202 17.445 30.9832 17.0067 30.104 16.1288C29.2248 15.2509 28.7878 14.8113 28.2976 14.6089C27.6451 14.3387 26.912 14.3387 26.2594 14.6089ZM17.7803 23.0866C17.2915 23.2891 16.8518 23.7274 15.9753 24.6053C15.0961 25.4845 14.6578 25.9227 14.4553 26.4116C14.3214 26.7349 14.2524 27.0815 14.2524 27.4314C14.2524 27.7813 14.3214 28.1279 14.4553 28.4512C14.6578 28.9414 15.0974 29.3797 15.974 30.2575C16.8532 31.1354 17.2915 31.5737 17.7803 31.7762C18.1036 31.9101 18.4502 31.9791 18.8001 31.9791C19.15 31.9791 19.4966 31.9101 19.8199 31.7762C20.3101 31.5737 20.7484 31.1354 21.6262 30.2575C22.5041 29.3797 22.9424 28.9414 23.1449 28.4512C23.415 27.7986 23.415 27.0655 23.1449 26.413C22.9424 25.9227 22.5055 25.4831 21.6262 24.6053C20.747 23.7274 20.3101 23.2891 19.8199 23.0866C19.1673 22.8165 18.4329 22.8165 17.7803 23.0866ZM32.9308 24.6053C32.0529 25.4845 31.6147 25.9227 31.4122 26.4116C31.2782 26.7349 31.2093 27.0815 31.2093 27.4314C31.2093 27.7813 31.2782 28.1279 31.4122 28.4512C31.6147 28.9414 32.0529 29.3797 32.9308 30.2575C33.8087 31.1354 34.2483 31.5737 34.7372 31.7762C35.3897 32.0463 36.1228 32.0463 36.7754 31.7762C37.2656 31.5737 37.7052 31.1354 38.5831 30.2575C39.461 29.3797 39.8979 28.9414 40.1017 28.4512C40.3719 27.7986 40.3719 27.0655 40.1017 26.413C39.8979 25.9227 39.461 25.4831 38.5831 24.6053C37.7039 23.7274 37.2656 23.2891 36.7767 23.0866C36.4534 22.9527 36.1069 22.8837 35.757 22.8837C35.407 22.8837 35.0605 22.9527 34.7372 23.0866C34.2483 23.2891 33.8087 23.7274 32.9308 24.6053ZM26.2594 31.5644C25.7692 31.7669 25.3309 32.2065 24.4531 33.083C23.5752 33.9622 23.1356 34.4005 22.9344 34.8907C22.6643 35.5433 22.6643 36.2764 22.9344 36.9289C23.1356 37.4191 23.5738 37.8574 24.4531 38.7353C25.3296 39.6132 25.7692 40.0528 26.2594 40.2539C26.912 40.5241 27.6451 40.5241 28.2976 40.2539C28.7878 40.0528 29.2261 39.6145 30.104 38.7353C30.9819 37.8561 31.4202 37.4191 31.6226 36.9289C31.8931 36.2762 31.8931 35.5435 31.6226 34.8907C31.4202 34.4005 30.9832 33.9609 30.104 33.0843C29.2261 32.2051 28.7878 31.7669 28.2976 31.5644C27.6451 31.2942 26.912 31.2942 26.2594 31.5644Z"
    stroke="#FBF4FF"
    strokeWidth="2.66429"
    strokeLinecap="round"
    strokeLinejoin="round"
    />
</svg>