<svg
    width="55"
    height="54"
    viewBox="0 0 55 54"
    fill="none"
    xmlns="http://www.w3.org/2000/svg"
    >
    <rect
        x="0.892853"
        y="0.482422"
        width="53.2857"
        height="53.2857"
        rx="26.6429"
        fill="#AE3EE6"
    />
    <path
        d="M22.2071 27.125H32.8642M31.5321 21.7964H34.1964C35.6096 21.7964 36.9649 22.3578 37.9642 23.3571C38.9635 24.3564 39.5249 25.7117 39.5249 27.125C39.5249 28.5382 38.9635 29.8935 37.9642 30.8928C36.9649 31.8921 35.6096 32.4535 34.1964 32.4535H31.5321M23.5392 21.7964H20.8749C19.4617 21.7964 18.1064 22.3578 17.1071 23.3571C16.1078 24.3564 15.5464 25.7117 15.5464 27.125C15.5464 28.5382 16.1078 29.8935 17.1071 30.8928C18.1064 31.8921 19.4617 32.4535 20.8749 32.4535H23.5392"
        stroke="#FBF4FF"
        strokeWidth="2.66429"
        strokeLinecap="round"
        strokeLinejoin="round"
    />
</svg>