<svg
        width="55"
        height="55"
        viewBox="0 0 55 55"
        fill="none"
        xmlns="http://www.w3.org/2000/svg"
      >
        <rect
          x="0.835678"
          y="0.825195"
          width="53.2857"
          height="53.2857"
          rx="26.6429"
          fill="#AE3EE6"
        />
        <path
          d="M35.4714 39.4576V35.4611M35.4714 35.4611H23.7445C22.2552 35.4611 21.5092 35.4611 20.9404 35.1707C20.4391 34.9153 20.0315 34.5077 19.7761 34.0064C19.4857 33.4363 19.4857 32.6903 19.4857 31.1983V19.4754M35.4714 35.4611H39.4678M19.4857 19.4754H15.4893M19.4857 19.4754V15.479M24.8143 19.4754H31.2085C32.7005 19.4754 33.4465 19.4754 34.0167 19.7658C34.518 20.0213 34.9256 20.4288 35.181 20.9301C35.4714 21.499 35.4714 22.245 35.4714 23.7343V30.1326"
          stroke="#FBF4FF"
          strokeWidth="2.66429"
          strokeLinecap="round"
          strokeLinejoin="round"
        />
</svg>