<svg width="16" height="16" viewBox="0 0 16 16" fill="none" xmlns="http://www.w3.org/2000/svg">
<path d="M8 1C7.07174 1.92826 6.55025 3.18724 6.55025 4.5C6.55025 5.81275 7.07174 7.07174 8 8C8.92826 8.92826 10.1872 9.44975 11.5 9.44975C12.8128 9.44975 14.0717 8.92826 15 8C15 9.38447 14.5895 10.7378 13.8203 11.889C13.0511 13.0401 11.9579 13.9373 10.6788 14.4672C9.3997 14.997 7.99224 15.1356 6.63437 14.8655C5.2765 14.5954 4.02922 13.9287 3.05026 12.9497C2.07129 11.9708 1.4046 10.7235 1.13451 9.36563C0.86441 8.00776 1.00303 6.6003 1.53285 5.32121C2.06266 4.04213 2.95987 2.94888 4.11101 2.17971C5.26215 1.41054 6.61553 1 8 1Z" stroke="#FBF4FF" stroke-width="2" stroke-linecap="round" stroke-linejoin="round"/>
</svg>
