<svg width="40" height="41" viewBox="0 0 40 41" fill="none" xmlns="http://www.w3.org/2000/svg">
<rect y="0.91748" width="40" height="40" rx="20" fill="#AE3EE6"/>
<path fill-rule="evenodd" clip-rule="evenodd" d="M20 8.91748C13.371 8.91748 8 14.2924 8 20.9153C8 27.2109 12.857 32.3783 19.0266 32.8742V32.9175H20C26.629 32.9175 32 27.5426 32 20.9197C32 14.2972 26.6295 8.91748 20 8.91748ZM22.6516 30.6177C21.8988 30.823 21.1107 30.9431 20.2985 30.9667H20C18.6456 30.9667 17.3534 30.6985 16.1738 30.2122C17.3159 26.0969 20.4121 23.1492 23.9559 21.8321C24.5675 24.796 24.1236 27.9722 22.6516 30.6177ZM23.4163 19.9575C19.3716 21.4143 15.8391 24.6959 14.4198 29.2757C11.7234 27.4723 9.94675 24.3999 9.94675 20.9153C9.94675 19.6796 10.1699 18.4958 10.5783 17.402C11.7953 18.0084 13.0967 18.4374 14.435 18.6759C16.1399 18.9885 17.8866 18.9781 19.5864 18.6716C20.554 18.4969 21.4986 18.2187 22.4044 17.8479C22.8075 18.5181 23.1466 19.2243 23.4163 19.9575ZM25.8323 21.2963C26.4168 23.9942 26.2395 26.8532 25.3067 29.4579C28.0742 27.7344 29.9426 24.7036 30.0485 21.2314C28.6728 20.982 27.2387 21.0124 25.8323 21.2963ZM29.9132 19.2387C28.3897 19.0247 26.8229 19.0942 25.2925 19.4211C24.9911 18.5755 24.6106 17.7609 24.1573 16.9874C25.4147 16.2612 26.563 15.3472 27.5501 14.2814C28.7573 15.654 29.5965 17.3581 29.9132 19.2387ZM14.779 16.7601C13.6164 16.5531 12.4871 16.18 11.4333 15.6533C12.3396 14.1816 13.6147 12.9609 15.13 12.1202L15.1416 12.1239L15.1421 12.124L15.1421 12.124L15.1422 12.124C15.3072 12.176 15.4648 12.2256 15.6166 12.28C15.6726 12.3014 15.7274 12.3222 15.781 12.3425L15.7818 12.3428L15.7819 12.3429L15.7819 12.3429C16.028 12.4362 16.2477 12.5195 16.4313 12.6046L16.4837 12.6308L16.4961 12.6366C16.6121 12.6905 16.7791 12.7701 16.9296 12.8419C17.0096 12.8801 17.085 12.916 17.1455 12.9446L17.1478 12.9459C17.1984 12.9731 17.2409 12.9959 17.2806 13.0195C17.3128 13.0404 17.3416 13.0574 17.3571 13.0664C17.3853 13.083 17.4143 13.0993 17.4383 13.1126C17.4587 13.124 17.4788 13.1351 17.4938 13.1433L17.5014 13.1475L17.5174 13.1563L17.5194 13.1575C17.5417 13.1703 17.5688 13.1858 17.5997 13.2034C17.6658 13.2412 17.7495 13.2889 17.8414 13.3427C17.9061 13.3806 17.9667 13.4168 18.0162 13.4475C18.0529 13.4703 18.0729 13.4835 18.0805 13.4886L18.0809 13.4889C18.084 13.4909 18.0848 13.4914 18.0835 13.4905L18.1262 13.5228L18.1736 13.551C18.2459 13.5939 18.3171 13.6432 18.406 13.7047L18.4061 13.7047L18.4061 13.7047L18.4065 13.705C18.447 13.7331 18.4913 13.7637 18.5411 13.7975L18.5748 13.8204L18.6036 13.8366C18.6035 13.8366 18.6049 13.8375 18.6077 13.8395C18.6155 13.8447 18.6342 13.8573 18.6669 13.8807C18.7172 13.9167 18.7779 13.9619 18.8447 14.0121L18.9239 14.0718C18.9645 14.1025 19.0058 14.1336 19.0409 14.1599C19.0872 14.1945 19.1439 14.2367 19.1951 14.2721C19.9421 14.8434 20.6249 15.4958 21.2328 16.2148C20.586 16.4514 19.9194 16.6336 19.2407 16.7561C17.7612 17.0229 16.25 17.0301 14.7841 16.7611L14.7815 16.7606L14.779 16.7601ZM20 10.8639C22.3075 10.8639 24.4333 11.6421 26.1299 12.9501C25.2404 13.9124 24.1987 14.732 23.0582 15.3734C22.274 14.3768 21.3668 13.4794 20.3553 12.7089L20.3309 12.6903L20.3055 12.6734L20.2986 12.6686C20.2932 12.6648 20.286 12.6596 20.2768 12.6529C20.2581 12.6394 20.235 12.6222 20.2072 12.6014C20.1757 12.5779 20.1442 12.5541 20.1103 12.5285L20.1102 12.5284L20.1032 12.5232C20.0757 12.5024 20.0466 12.4805 20.0148 12.4565C19.9458 12.4047 19.8702 12.3483 19.8008 12.2985C19.7523 12.2638 19.6825 12.2146 19.6113 12.1712L19.5661 12.1399L19.5658 12.1398L19.5658 12.1397C19.4731 12.0756 19.3341 11.9793 19.2077 11.9016C19.0895 11.8188 18.9298 11.7244 18.8252 11.6632C18.7239 11.6038 18.6148 11.5416 18.5471 11.5029L18.5466 11.5026L18.4953 11.4733C18.4826 11.4659 18.4715 11.4597 18.4672 11.4573L18.4666 11.457L18.4403 11.4425L18.4314 11.4376C18.4163 11.4292 18.4012 11.4209 18.3855 11.4122C18.3675 11.4022 18.353 11.3939 18.3423 11.3877L18.335 11.3826L18.3092 11.3668C18.2157 11.3097 18.1183 11.2575 18.0654 11.2292L18.0643 11.2286L18.0459 11.2187L18.0233 11.2066L18 11.1956C17.9536 11.1737 17.8849 11.141 17.807 11.1038C18.5129 10.9467 19.2467 10.8639 20 10.8639Z" fill="#FBF4FF"/>
</svg>
