    <svg
          width="54"
          height="54"
          viewBox="0 0 54 54"
          fill="none"
          xmlns="http://www.w3.org/2000/svg"
        >
          <rect
            x="0.0428238"
            y="0.614746"
            width="53.2857"
            height="53.2857"
            rx="26.6429"
            fill="#AE3EE6"
          />
          <path
            d="M16.0285 37.9146H37.3428M16.0285 37.9146V32.586L26.6857 21.9288L30.5076 18.1069L30.5089 18.1056C31.0351 17.5794 31.2989 17.3156 31.6026 17.217C31.8702 17.1301 32.1583 17.1301 32.4259 17.217C32.7296 17.3156 32.992 17.5794 33.5182 18.1043L35.8362 20.4222C36.3637 20.9497 36.6275 21.2135 36.726 21.5172C36.813 21.7847 36.813 22.0729 36.726 22.3405C36.6275 22.6442 36.3637 22.908 35.8362 23.4355L32.0143 27.2587L26.6857 21.9302M16.0285 37.9146H21.3571L32.0143 27.2574"
            stroke="#FBF4FF"
            strokeWidth="2.66429"
            strokeLinecap="round"
            strokeLinejoin="round"
          />
        </svg>