 <svg
    width="16"
    height="16"
    viewBox="0 0 16 16"
    fill="none"
    xmlns="http://www.w3.org/2000/svg"
    >
    <path
        d="M15 8L14.2222 8M1.77778 8L0.999998 8M8 1L8 1.77778M8 14.2222L8 15M12.9498 12.95L12.3999 12.4001M3.60012 3.60029L3.05023 3.0504M12.9498 3.0504L12.3999 3.60029M3.60012 12.4001L3.05023 12.95M8 11.1111C6.28178 11.1111 4.88889 9.71822 4.88889 8C4.88889 6.28178 6.28178 4.88889 8 4.88889C9.71822 4.88889 11.1111 6.28178 11.1111 8C11.1111 9.71822 9.71822 11.1111 8 11.1111Z"
        stroke="#AE3EE6"
        stroke-width="1.55556"
        stroke-linecap="round"
        stroke-linejoin="round"
    />
</svg>