<svg width="40" height="41" viewBox="0 0 40 41" fill="none" xmlns="http://www.w3.org/2000/svg">
<rect y="0.91748" width="40" height="40" rx="20" fill="#AE3EE6"/>
<g clip-path="url(#clip0_378_144)">
<path d="M30.2234 8.91748H9.77187C8.79219 8.91748 8 9.69092 8 10.6472V31.1831C8 32.1394 8.79219 32.9175 9.77187 32.9175H30.2234C31.2031 32.9175 32 32.1394 32 31.1878V10.6472C32 9.69092 31.2031 8.91748 30.2234 8.91748ZM15.1203 29.369H11.5578V17.9128H15.1203V29.369ZM13.3391 16.3519C12.1953 16.3519 11.2719 15.4284 11.2719 14.2894C11.2719 13.1503 12.1953 12.2269 13.3391 12.2269C14.4781 12.2269 15.4016 13.1503 15.4016 14.2894C15.4016 15.4237 14.4781 16.3519 13.3391 16.3519ZM28.4516 29.369H24.8937V23.8003C24.8937 22.4737 24.8703 20.7628 23.0422 20.7628C21.1906 20.7628 20.9094 22.2112 20.9094 23.7065V29.369H17.3563V17.9128H20.7687V19.4784H20.8156C21.2891 18.5784 22.4516 17.6269 24.1813 17.6269C27.7859 17.6269 28.4516 19.9987 28.4516 23.0831V29.369Z" fill="#FBF4FF"/>
</g>
<defs>
<clipPath id="clip0_378_144">
<rect width="24" height="24" fill="white" transform="translate(8 8.91748)"/>
</clipPath>
</defs>
</svg>
