<svg width="40" height="40" viewBox="0 0 40 40" fill="none" xmlns="http://www.w3.org/2000/svg">
<path d="M34.7084 32.7601C34.9287 32.9512 34.9528 33.2853 34.7559 33.5005C31.6412 36.905 27.4402 39.1321 22.8626 39.7941C18.1106 40.4813 13.27 39.4361 9.22496 36.8493C5.17992 34.2625 2.20048 30.3068 0.8309 25.7049C-0.53868 21.1029 -0.206985 16.1618 1.76539 11.7842C3.73777 7.4066 7.21919 3.88465 11.5737 1.86172C15.9282 -0.1612 20.8651 -0.550071 25.4826 0.766145C30.1001 2.08236 34.09 5.01581 36.7234 9.03063C39.2602 12.8981 40.3752 17.5203 39.8885 22.1089C39.8577 22.3989 39.5915 22.6022 39.3024 22.5638V22.5638C39.0133 22.5254 38.8109 22.2599 38.8412 21.9698C39.2948 17.6326 38.2381 13.2653 35.8404 9.60987C33.346 5.80705 29.5668 3.0285 25.1931 1.78178C20.8194 0.535068 16.1432 0.903406 12.0186 2.81951C7.89407 4.73561 4.5965 8.07159 2.72827 12.218C0.860038 16.3645 0.545858 21.0447 1.84312 25.4036C3.14038 29.7626 5.96249 33.5094 9.79393 35.9596C13.6254 38.4098 18.2104 39.3998 22.7115 38.7489C27.0381 38.1231 31.0096 36.0213 33.9579 32.8081C34.1551 32.5933 34.4881 32.569 34.7084 32.7601V32.7601Z" fill="#F7F7F8"/>
<circle cx="36.2351" cy="30.4851" r="1.72727" fill="#F7F7F8"/>
<circle cx="37.9542" cy="27.235" r="1.09091" fill="#F7F7F8"/>
<circle cx="38.8952" cy="24.5178" r="0.727273" fill="#F7F7F8"/>
<path d="M17.1429 18.7275C16.4339 18.6196 15.8329 18.6427 15.3397 18.7969C14.8465 18.9356 14.4458 19.1745 14.1376 19.5135C13.8447 19.8372 13.629 20.2302 13.4902 20.6925C13.3515 21.1549 13.2822 21.6558 13.2822 22.1952C13.2822 22.5497 13.2822 22.9581 13.2822 23.4205C13.2822 23.8828 13.2822 24.3529 13.2822 24.8307C13.2822 25.3084 13.2822 25.7631 13.2822 26.1946C13.2822 26.6262 13.2822 26.996 13.2822 27.3043C13.2822 27.6125 13.2128 27.8591 13.0741 28.0441C12.9354 28.229 12.7582 28.3523 12.5424 28.4139C12.3421 28.491 12.134 28.4987 11.9182 28.4371C11.7179 28.3754 11.5483 28.2521 11.4096 28.0672C11.2709 27.8668 11.2016 27.6125 11.2016 27.3043C11.2016 26.9806 11.2016 26.5799 11.2016 26.1021C11.2016 25.609 11.2016 25.1004 11.2016 24.5764C11.2016 24.0369 11.2016 23.5283 11.2016 23.0506C11.2016 22.5728 11.2016 22.1875 11.2016 21.8947C11.2016 21.4631 11.2016 21.0085 11.2016 20.5307C11.2016 20.0529 11.2016 19.5752 11.2016 19.0974C11.2016 18.6042 11.2016 18.1496 11.2016 17.7334C11.2016 17.3327 11.3017 17.0399 11.5021 16.855C11.7179 16.6546 11.9645 16.5544 12.2419 16.5544C12.5193 16.5544 12.7582 16.6546 12.9585 16.855C13.1743 17.0553 13.2822 17.3481 13.2822 17.7334C13.2822 18.242 13.2822 18.7198 13.2822 19.1668C13.2822 19.5983 13.2822 20.0375 13.2822 20.4845C13.2822 20.916 13.2822 21.3861 13.2822 21.8947C13.2822 22.095 13.2822 22.4264 13.2822 22.8888C13.2822 23.3511 13.2822 23.8674 13.2822 24.4377C13.2822 25.0079 13.2822 25.555 13.2822 26.079C13.2822 26.5876 13.2822 26.996 13.2822 27.3043C13.2822 27.6125 13.2128 27.8591 13.0741 28.0441C12.9354 28.229 12.7582 28.3523 12.5424 28.4139C12.3421 28.491 12.134 28.4987 11.9182 28.4371C11.7179 28.3754 11.5483 28.2521 11.4096 28.0672C11.2709 27.8668 11.2016 27.6125 11.2016 27.3043C11.2016 26.8727 11.2016 26.3487 11.2016 25.7323C11.2016 25.1158 11.2016 24.5224 11.2016 23.9522C11.2016 23.3819 11.2016 22.9504 11.2016 22.6576C11.2016 21.9949 11.2786 21.3476 11.4327 20.7157C11.6023 20.0838 11.8489 19.4981 12.1725 18.9587C12.4962 18.4193 12.9046 17.9569 13.3978 17.5716C13.891 17.1863 14.4689 16.9089 15.1316 16.7394C15.8098 16.5698 16.5726 16.539 17.4203 16.6469C17.8056 16.7085 18.083 16.855 18.2526 17.0861C18.4221 17.3173 18.4837 17.5716 18.4375 17.849C18.4067 18.1264 18.2757 18.3576 18.0445 18.5426C17.8287 18.7121 17.5282 18.7738 17.1429 18.7275ZM28.2088 28.229C27.8081 28.229 27.3612 28.229 26.868 28.229C26.3902 28.229 25.8662 28.229 25.2959 28.229C24.7257 28.229 24.1092 28.229 23.4465 28.229C22.753 28.229 22.2058 28.1751 21.8051 28.0672C21.4044 27.9439 21.1116 27.7358 20.9267 27.443C20.7417 27.1502 20.6261 26.7263 20.5799 26.1715C20.5336 25.6167 20.5105 24.9 20.5105 24.0215C20.5105 23.0814 20.5105 22.1567 20.5105 21.2474C20.5105 20.3381 20.5105 19.4596 20.5105 18.6119C20.5105 17.7489 20.5105 16.9474 20.5105 16.2077C20.5105 15.884 20.5105 15.5835 20.5105 15.3061C20.5105 15.0132 20.5105 14.7127 20.5105 14.4045C20.5105 14.0962 20.5105 13.7726 20.5105 13.4335C20.5105 13.0482 20.6107 12.7631 20.8111 12.5781C21.0268 12.3778 21.2734 12.2776 21.5508 12.2776C21.8283 12.2776 22.0671 12.3778 22.2675 12.5781C22.4833 12.7631 22.5911 13.0482 22.5911 13.4335C22.5911 13.7726 22.5911 14.0885 22.5911 14.3813C22.5911 14.6742 22.5911 14.967 22.5911 15.2598C22.5911 15.5526 22.5911 15.8686 22.5911 16.2077C22.5911 16.7471 22.5911 17.2942 22.5911 17.849C22.5911 18.4039 22.5911 18.9818 22.5911 19.5829C22.5911 20.1685 22.5911 20.7927 22.5911 21.4554C22.5911 22.1027 22.5911 22.7963 22.5911 23.5361C22.5911 24.1834 22.5911 24.6842 22.5911 25.0387C22.5911 25.3932 22.622 25.6552 22.6836 25.8247C22.7453 25.9789 22.8686 26.0713 23.0535 26.1021C23.2384 26.133 23.5159 26.1484 23.8858 26.1484C24.2556 26.1484 24.6101 26.1484 24.9492 26.1484C25.2882 26.1484 25.6273 26.1484 25.9664 26.1484C26.3208 26.1484 26.683 26.1484 27.0529 26.1484C27.4228 26.1484 27.8081 26.1484 28.2088 26.1484C28.5941 26.1484 28.8792 26.2563 29.0642 26.472C29.2645 26.6724 29.3647 26.9113 29.3647 27.1887C29.3647 27.4661 29.2645 27.7127 29.0642 27.9285C28.8792 28.1288 28.5941 28.229 28.2088 28.229Z" fill="#F7F7F8"/>
</svg>
