<svg
    width="55"
    height="54"
    viewBox="0 0 55 54"
    fill="none"
    xmlns="http://www.w3.org/2000/svg"
    >
    <rect
        x="0.982208"
        y="0.20752"
        width="53.2857"
        height="53.2857"
        rx="26.6429"
        fill="#AE3EE6"
    />
    <path
        d="M20.5751 27.3352L23.4006 30.162M24.3424 23.5679L27.1679 26.3921M28.1097 19.8006L30.9365 22.6274M18.8779 29.0311L29.8042 18.1035C30.8592 17.0484 31.3868 16.5209 31.9955 16.3237C32.5306 16.1499 33.107 16.1499 33.6421 16.3237C34.2495 16.5209 34.7771 17.0484 35.8308 18.1022L37.3414 19.6088C38.3965 20.6639 38.924 21.1941 39.1225 21.8015C39.2957 22.337 39.2957 22.9125 39.1225 23.4467C38.924 24.0555 38.3965 24.583 37.3414 25.6381L26.4152 36.5657C25.3601 37.6207 24.8313 38.1482 24.2238 38.3454C23.6883 38.5186 23.1128 38.5186 22.5786 38.3454C21.9698 38.1482 21.441 37.6207 20.3859 36.5657L18.8766 35.0563C17.8242 34.0026 17.2953 33.4751 17.0982 32.8676C16.9243 32.3325 16.9243 31.7562 17.0982 31.2211C17.2953 30.6123 17.8242 30.0848 18.8793 29.0297"
        stroke="#FBF4FF"
        strokeWidth="2.66429"
        strokeLinecap="round"
        strokeLinejoin="round"
    />
</svg>