<svg
    width="54"
    height="54"
    viewBox="0 0 54 54"
    fill="none"
    xmlns="http://www.w3.org/2000/svg"
    >
    <rect
        x="0.714294"
        y="0.564453"
        width="53.2857"
        height="53.2857"
        rx="26.6429"
        fill="#AE3EE6"
    />
    <path
        d="M28.6893 35.2001L22.0286 19.2144L15.3679 35.2001M26.025 29.8715H18.0321M39.3464 35.2001V31.2036M39.3464 31.2036V27.2072M39.3464 31.2036C39.3464 32.2636 38.9254 33.2801 38.1759 34.0295C37.4264 34.779 36.4099 35.2001 35.35 35.2001C34.2901 35.2001 33.2736 34.779 32.5241 34.0295C31.7746 33.2801 31.3536 32.2636 31.3536 31.2036C31.3536 30.1437 31.7746 29.1272 32.5241 28.3777C33.2736 27.6283 34.2901 27.2072 35.35 27.2072C36.4099 27.2072 37.4264 27.6283 38.1759 28.3777C38.9254 29.1272 39.3464 30.1437 39.3464 31.2036Z"
        stroke="#FBF4FF"
        strokeWidth="2.66429"
        strokeLinecap="round"
        strokeLinejoin="round"
    />
</svg>