<svg width="40" height="40" viewBox="0 0 40 40" fill="none" xmlns="http://www.w3.org/2000/svg">
<rect width="40" height="40" rx="20" fill="#AE3EE6"/>
<path d="M26.5606 21.6597C25.4568 21.6597 24.4226 21.1928 23.4829 20.433L23.7116 19.3602L23.7216 19.3205C23.9254 18.1782 24.5718 16.2612 26.5606 16.2612C28.0522 16.2612 29.2654 17.473 29.2654 18.9629C29.2604 20.4479 28.0472 21.6597 26.5606 21.6597ZM26.5606 13.5247C24.0199 13.5247 22.051 15.1735 21.2505 17.8852C20.0274 16.0526 19.1026 13.8525 18.5606 12H15.826V19.1069C15.826 20.5075 14.6824 21.6497 13.2803 21.6497C11.8782 21.6497 10.7346 20.5075 10.7346 19.1069V12H8.00003V19.1069C7.99009 22.0172 10.3617 24.4061 13.2754 24.4061C16.189 24.4061 18.5606 22.0172 18.5606 19.1069V17.915C19.0926 19.0225 19.744 20.1399 20.5345 21.1332L18.8589 29H21.6582L22.8714 23.2936C23.9354 23.974 25.1585 24.4011 26.5606 24.4011C29.5587 24.4011 32 21.9477 32 18.953C32 15.9632 29.5587 13.5247 26.5606 13.5247Z" fill="white"/>
</svg>
