<svg width="40" height="41" viewBox="0 0 40 41" fill="none" xmlns="http://www.w3.org/2000/svg">
<rect y="0.91748" width="40" height="40" rx="20" fill="#AE3EE6"/>
<path d="M8 32.9174L9.687 26.7544C8.646 24.9504 8.099 22.9054 8.1 20.8085C8.103 14.2525 13.438 8.91748 19.993 8.91748C23.174 8.91848 26.16 10.1575 28.406 12.4055C30.6509 14.6535 31.8869 17.6415 31.8859 20.8195C31.8829 27.3764 26.548 32.7114 19.993 32.7114C18.003 32.7104 16.042 32.2114 14.305 31.2634L8 32.9174ZM14.597 29.1104C16.273 30.1054 17.873 30.7014 19.989 30.7024C25.437 30.7024 29.875 26.2684 29.878 20.8175C29.88 15.3555 25.463 10.9275 19.997 10.9255C14.545 10.9255 10.11 15.3595 10.108 20.8095C10.107 23.0344 10.759 24.7004 11.854 26.4434L10.855 30.0914L14.597 29.1104ZM25.984 23.6464C25.91 23.5224 25.712 23.4484 25.414 23.2994C25.117 23.1504 23.656 22.4315 23.383 22.3325C23.111 22.2335 22.913 22.1835 22.714 22.4815C22.516 22.7785 21.946 23.4484 21.773 23.6464C21.6 23.8444 21.426 23.8694 21.129 23.7204C20.832 23.5714 19.874 23.2584 18.739 22.2455C17.856 21.4575 17.259 20.4845 17.086 20.1865C16.913 19.8895 17.068 19.7285 17.216 19.5805C17.35 19.4475 17.513 19.2335 17.662 19.0595C17.813 18.8875 17.862 18.7635 17.962 18.5645C18.061 18.3665 18.012 18.1925 17.937 18.0435C17.862 17.8955 17.268 16.4325 17.021 15.8375C16.779 15.2585 16.534 15.3365 16.352 15.3275L15.782 15.3175C15.584 15.3175 15.262 15.3915 14.99 15.6895C14.718 15.9875 13.95 16.7055 13.95 18.1685C13.95 19.6315 15.015 21.0445 15.163 21.2425C15.312 21.4405 17.258 24.4424 20.239 25.7294C20.948 26.0354 21.502 26.2184 21.933 26.3554C22.645 26.5814 23.293 26.5494 23.805 26.4734C24.376 26.3884 25.563 25.7544 25.811 25.0604C26.059 24.3654 26.059 23.7704 25.984 23.6464Z" fill="#FBF4FF"/>
</svg>
